<svg width="400" height="400" viewBox="0 0 400 400" fill="none" xmlns="http://www.w3.org/2000/svg">
<g clip-path="url(#clip0_2_4)">
<rect width="400" height="400" fill="white"/>
<path d="M236.4 306H212.04C205.32 306 199.72 301.52 195.24 292.56L168.92 239.08C166.68 234.413 164.253 230.96 161.64 228.72C159.213 226.48 155.76 225.267 151.28 225.08H115.72V285H140.92C143.16 285 144.28 286.12 144.28 288.36V302.64C144.28 304.88 143.16 306 140.92 306H70.08C67.6533 306 66.44 304.88 66.44 302.64V288.36C66.44 286.12 67.6533 285 70.08 285H91.36V125.96H70.08C67.6533 125.96 66.44 124.84 66.44 122.6V108.32C66.44 106.08 67.6533 104.96 70.08 104.96H156.32C176.293 104.96 192.533 110.28 205.04 120.92C217.547 131.373 223.8 146.213 223.8 165.44C223.8 194.747 210.08 213.04 182.64 220.32C186.187 223.12 190.573 229.373 195.8 239.08L219.32 285H236.4C238.64 285 239.76 286.12 239.76 288.36V302.64C239.76 304.88 238.64 306 236.4 306ZM115.72 205.2H151.56C183.293 205.2 199.16 192.227 199.16 166.28C199.16 139.4 183.293 125.96 151.56 125.96H115.72V205.2Z" fill="#CD6300"/>
<path d="M339.624 224.336C345.699 224.336 350.624 219.411 350.624 213.336C350.624 207.261 345.699 202.336 339.624 202.336V224.336ZM314.624 213.336V202.336H304.4L303.654 212.533L314.624 213.336ZM196 250.5L206.994 250.145L206.967 249.311L206.815 248.491L196 250.5ZM247.624 192.336L250.586 202.93L247.624 192.336ZM306 295L295.444 298.092L297.76 306H306V295ZM333 306C339.075 306 344 301.075 344 295C344 288.925 339.075 284 333 284V306ZM268.5 119.5L272.099 109.106L268.5 119.5ZM288 164L298.252 167.987L298.252 167.987L288 164ZM339.624 202.336H314.624V224.336H339.624V202.336ZM303.654 212.533C302.76 224.75 298.154 243.361 288.617 258.576C279.217 273.572 265.98 284 247.5 284V306C276.02 306 295.346 289.263 307.257 270.26C319.032 251.476 324.489 229.255 325.595 214.139L303.654 212.533ZM247.5 284C226.506 284 217.147 275.058 212.43 267.127C209.88 262.841 208.49 258.46 207.75 255.092C207.385 253.429 207.191 252.072 207.09 251.181C207.04 250.738 207.014 250.415 207.002 250.234C206.995 250.144 206.992 250.09 206.992 250.074C206.991 250.066 206.991 250.068 206.992 250.08C206.992 250.086 206.992 250.094 206.993 250.105C206.993 250.11 206.993 250.117 206.993 250.123C206.994 250.127 206.994 250.132 206.994 250.134C206.994 250.14 206.994 250.145 196 250.5C185.006 250.855 185.006 250.861 185.006 250.867C185.006 250.87 185.006 250.876 185.007 250.881C185.007 250.89 185.007 250.9 185.008 250.911C185.008 250.933 185.009 250.958 185.01 250.985C185.013 251.039 185.016 251.105 185.02 251.181C185.027 251.334 185.039 251.529 185.055 251.765C185.088 252.236 185.141 252.87 185.228 253.643C185.402 255.186 185.712 257.306 186.263 259.814C187.356 264.79 189.454 271.534 193.521 278.373C202.038 292.692 218.429 306 247.5 306V284ZM196 250.5C206.815 248.491 206.816 248.498 206.818 248.505C206.818 248.508 206.819 248.515 206.82 248.519C206.822 248.528 206.823 248.537 206.825 248.545C206.828 248.56 206.83 248.574 206.832 248.585C206.836 248.607 206.838 248.62 206.838 248.624C206.84 248.632 206.835 248.604 206.827 248.542C206.81 248.419 206.778 248.162 206.748 247.788C206.686 247.035 206.632 245.828 206.707 244.282C206.859 241.179 207.528 236.834 209.624 232.071C213.601 223.036 223.615 210.469 250.586 202.93L244.663 181.742C212.285 190.793 196.487 207.308 189.488 223.208C186.097 230.912 184.988 237.997 184.733 243.208C184.606 245.819 184.691 247.989 184.82 249.575C184.885 250.369 184.961 251.022 185.029 251.516C185.062 251.763 185.094 251.97 185.121 252.137C185.134 252.22 185.146 252.292 185.157 252.355C185.163 252.386 185.168 252.414 185.172 252.44C185.175 252.453 185.177 252.465 185.179 252.477C185.18 252.483 185.182 252.491 185.182 252.494C185.184 252.502 185.185 252.51 196 250.5ZM202.5 155.576C202.5 189.519 225.482 214.977 246.51 236.139C257.53 247.229 268.082 257.148 277.088 267.625C286.007 278.001 292.456 287.893 295.444 298.092L316.556 291.908C312.294 277.357 303.555 264.666 293.771 253.284C284.075 242.004 272.408 230.99 262.115 220.632C240.518 198.897 224.5 179.392 224.5 155.576H202.5ZM306 306H333V284H306V306ZM272.099 109.106C258.85 104.518 241.937 106.163 228.298 113.391C214.153 120.887 202.5 135.03 202.5 155.576H224.5C224.5 144.621 230.279 137.24 238.6 132.83C247.428 128.152 258.014 127.51 264.901 129.894L272.099 109.106ZM250.586 202.93C262.388 199.63 272.815 194.175 280.883 188.188C288.598 182.463 295.401 175.317 298.252 167.987L277.748 160.013C277.099 161.683 274.152 165.787 267.773 170.521C261.747 174.993 253.736 179.206 244.663 181.742L250.586 202.93ZM298.252 167.987C308.823 140.806 294.023 116.697 272.099 109.106L264.901 129.894C275.977 133.73 283.445 145.364 277.748 160.013L298.252 167.987Z" fill="#CD6300"/>
<circle cx="186" cy="222" r="10" fill="#CD6300"/>
<rect x="225" y="295" width="24" height="11" fill="#CD6300"/>
<path d="M223.4 293H199.04C192.32 293 186.72 288.52 182.24 279.56L155.92 226.08C153.68 221.413 151.253 217.96 148.64 215.72C146.213 213.48 142.76 212.267 138.28 212.08H102.72V272H127.92C130.16 272 131.28 273.12 131.28 275.36V289.64C131.28 291.88 130.16 293 127.92 293H57.08C54.6533 293 53.44 291.88 53.44 289.64V275.36C53.44 273.12 54.6533 272 57.08 272H78.36V112.96H57.08C54.6533 112.96 53.44 111.84 53.44 109.6V95.32C53.44 93.08 54.6533 91.96 57.08 91.96H143.32C163.293 91.96 179.533 97.28 192.04 107.92C204.547 118.373 210.8 133.213 210.8 152.44C210.8 181.747 197.08 200.04 169.64 207.32C173.187 210.12 177.573 216.373 182.8 226.08L206.32 272H223.4C225.64 272 226.76 273.12 226.76 275.36V289.64C226.76 291.88 225.64 293 223.4 293ZM102.72 192.2H138.56C170.293 192.2 186.16 179.227 186.16 153.28C186.16 126.4 170.293 112.96 138.56 112.96H102.72V192.2Z" fill="#FF8C21"/>
<path d="M326.624 211.336C332.699 211.336 337.624 206.411 337.624 200.336C337.624 194.261 332.699 189.336 326.624 189.336V211.336ZM301.624 200.336V189.336H291.4L290.654 199.533L301.624 200.336ZM183 237.5L193.994 237.145L193.967 236.311L193.815 235.491L183 237.5ZM234.624 179.336L237.586 189.93L234.624 179.336ZM293 282L282.444 285.092L284.76 293H293V282ZM320 293C326.075 293 331 288.075 331 282C331 275.925 326.075 271 320 271V293ZM255.5 106.5L259.099 96.1056L255.5 106.5ZM275 151L285.252 154.987L285.252 154.987L275 151ZM326.624 189.336H301.624V211.336H326.624V189.336ZM290.654 199.533C289.76 211.75 285.154 230.361 275.617 245.576C266.217 260.572 252.98 271 234.5 271V293C263.02 293 282.346 276.263 294.257 257.26C306.032 238.476 311.489 216.255 312.595 201.139L290.654 199.533ZM234.5 271C213.506 271 204.147 262.058 199.43 254.127C196.88 249.841 195.49 245.46 194.75 242.092C194.385 240.429 194.191 239.072 194.09 238.181C194.04 237.738 194.014 237.415 194.002 237.234C193.995 237.144 193.992 237.09 193.992 237.074C193.991 237.066 193.991 237.068 193.992 237.08C193.992 237.086 193.992 237.094 193.993 237.105C193.993 237.11 193.993 237.117 193.993 237.123C193.994 237.127 193.994 237.132 193.994 237.134C193.994 237.14 193.994 237.145 183 237.5C172.006 237.855 172.006 237.861 172.006 237.867C172.006 237.87 172.006 237.876 172.007 237.881C172.007 237.89 172.007 237.9 172.008 237.911C172.008 237.933 172.009 237.958 172.01 237.985C172.013 238.039 172.016 238.105 172.02 238.181C172.027 238.334 172.039 238.529 172.055 238.765C172.088 239.236 172.141 239.87 172.228 240.643C172.402 242.186 172.712 244.306 173.263 246.814C174.356 251.79 176.454 258.534 180.521 265.373C189.038 279.692 205.429 293 234.5 293V271ZM183 237.5C193.815 235.491 193.816 235.498 193.818 235.505C193.818 235.508 193.819 235.515 193.82 235.519C193.822 235.528 193.823 235.537 193.825 235.545C193.828 235.56 193.83 235.574 193.832 235.585C193.836 235.607 193.838 235.62 193.838 235.624C193.84 235.632 193.835 235.604 193.827 235.542C193.81 235.419 193.778 235.162 193.748 234.788C193.686 234.035 193.632 232.828 193.707 231.282C193.859 228.179 194.528 223.834 196.624 219.071C200.601 210.036 210.615 197.469 237.586 189.93L231.663 168.742C199.285 177.793 183.487 194.308 176.488 210.208C173.097 217.912 171.988 224.997 171.733 230.208C171.606 232.819 171.691 234.989 171.82 236.575C171.885 237.369 171.961 238.022 172.029 238.516C172.062 238.763 172.094 238.97 172.121 239.137C172.134 239.22 172.146 239.292 172.157 239.355C172.163 239.386 172.168 239.414 172.172 239.44C172.175 239.453 172.177 239.465 172.179 239.477C172.18 239.483 172.182 239.491 172.182 239.494C172.184 239.502 172.185 239.51 183 237.5ZM189.5 142.576C189.5 176.519 212.482 201.977 233.51 223.139C244.53 234.229 255.082 244.148 264.088 254.625C273.007 265.001 279.456 274.893 282.444 285.092L303.556 278.908C299.294 264.357 290.555 251.666 280.771 240.284C271.075 229.004 259.408 217.99 249.115 207.632C227.518 185.897 211.5 166.392 211.5 142.576H189.5ZM293 293H320V271H293V293ZM259.099 96.1056C245.85 91.5177 228.937 93.1633 215.298 100.391C201.153 107.887 189.5 122.03 189.5 142.576H211.5C211.5 131.621 217.279 124.24 225.6 119.83C234.428 115.152 245.014 114.51 251.901 116.894L259.099 96.1056ZM237.586 189.93C249.388 186.63 259.815 181.175 267.883 175.188C275.598 169.463 282.401 162.317 285.252 154.987L264.748 147.013C264.099 148.683 261.152 152.787 254.773 157.521C248.747 161.993 240.736 166.206 231.663 168.742L237.586 189.93ZM285.252 154.987C295.823 127.806 281.023 103.697 259.099 96.1056L251.901 116.894C262.977 120.73 270.445 132.364 264.748 147.013L285.252 154.987Z" fill="#FF8C21"/>
<circle cx="173" cy="209" r="10" fill="#FF8C21"/>
<rect x="212" y="282" width="24" height="11" fill="#FF8C21"/>
</g>
<defs>
<clipPath id="clip0_2_4">
<rect width="400" height="400" fill="white"/>
</clipPath>
</defs>
</svg>
